<svg xmlns="http://www.w3.org/2000/svg" width="512" height="512" viewBox="0 0 512 512"><path fill="#3498DB" d="M128 0h-46.8c-7.4 0-13.4 6-13.4 13.4v78.6c0 7.4 6 13.4 13.4 13.4h46.8v393.2c0 7.4 6 13.4 13.4 13.4h93.7c7.4 0 13.4-6 13.4-13.4v-485.2c0-7.4-6-13.4-13.4-13.4h-107.1z"/><g><path fill="#F39C12" d="M323.8 0h-46.8c-7.4 0-13.4 6-13.4 13.4v78.6c0 7.4 6 13.4 13.4 13.4h46.8v92c0 7.4 6 13.4 13.4 13.4h93.7c7.4 0 13.4-6 13.4-13.4v-184c0-7.4-6-13.4-13.4-13.4h-107.1z"/><path opacity=".4" d="M323.8 193l120.4-60.2-120.4 27z"/></g><g><g opacity=".4"><path d="M248.5 340.2l-120.4 60.2 120.4-27zM128 400.5z"/></g><path fill="#E74C3C" d="M444.2 132.7l-316.2 133.1v134.7l308-129.7c5-2.1 8.2-7 8.2-12.3v-125.8z"/></g></svg>